<svg width="25" height="24" viewBox="0 0 25 24" fill="none" xmlns="http://www.w3.org/2000/svg">
<path d="M19.6535 7.91998V13.07C19.6535 16.15 17.8769 17.47 15.2118 17.47H6.33852C5.88425 17.47 5.45018 17.43 5.04639 17.34C4.79402 17.3 4.55175 17.23 4.32967 17.15C2.81545 16.59 1.89682 15.29 1.89682 13.07V7.91998C1.89682 4.83998 3.6735 3.52002 6.33852 3.52002H15.2118C17.4731 3.52002 19.0983 4.47001 19.5324 6.64001C19.6031 7.04001 19.6535 7.44998 19.6535 7.91998Z" stroke="#292D32" stroke-width="1.5" stroke-miterlimit="10" stroke-linecap="round" stroke-linejoin="round"/>
<path d="M22.6831 10.9201V16.0701C22.6831 19.1501 20.9064 20.4701 18.2414 20.4701H9.36805C8.62104 20.4701 7.9447 20.3701 7.3592 20.1501C6.15792 19.7101 5.34023 18.8001 5.04749 17.3401C5.45128 17.4301 5.88535 17.4701 6.33962 17.4701H15.2129C17.878 17.4701 19.6546 16.1501 19.6546 13.0701V7.9201C19.6546 7.4501 19.6143 7.03014 19.5335 6.64014C21.4515 7.04014 22.6831 8.38011 22.6831 10.9201Z" stroke="#292D32" stroke-width="1.5" stroke-miterlimit="10" stroke-linecap="round" stroke-linejoin="round"/>
<path d="M10.7686 13.1399C12.2404 13.1399 13.4336 11.9579 13.4336 10.4999C13.4336 9.04185 12.2404 7.85986 10.7686 7.85986C9.29673 7.85986 8.10355 9.04185 8.10355 10.4999C8.10355 11.9579 9.29673 13.1399 10.7686 13.1399Z" stroke="#292D32" stroke-width="1.5" stroke-miterlimit="10" stroke-linecap="round" stroke-linejoin="round"/>
<path d="M4.99594 8.30005V12.7001" stroke="#292D32" stroke-width="1.5" stroke-miterlimit="10" stroke-linecap="round" stroke-linejoin="round"/>
<path d="M16.5461 8.30029V12.7003" stroke="#292D32" stroke-width="1.5" stroke-miterlimit="10" stroke-linecap="round" stroke-linejoin="round"/>
</svg>
