<svg width="25" height="24" viewBox="0 0 25 24" fill="none" xmlns="http://www.w3.org/2000/svg">
<path d="M9.74173 13.75C9.74173 14.72 10.4989 15.5 11.4276 15.5H13.3254C14.1329 15.5 14.7891 14.82 14.7891 13.97C14.7891 13.06 14.3853 12.73 13.7897 12.52L10.7512 11.47C10.1556 11.26 9.75183 10.94 9.75183 10.02C9.75183 9.17999 10.408 8.48999 11.2156 8.48999H13.1134C14.0421 8.48999 14.7992 9.26999 14.7992 10.24" stroke="#292D32" stroke-width="1.5" stroke-linecap="round" stroke-linejoin="round"/>
<path d="M12.2654 7.5V16.5" stroke="#292D32" stroke-width="1.5" stroke-linecap="round" stroke-linejoin="round"/>
<path d="M22.3602 12C22.3602 17.52 17.8377 22 12.2654 22C6.69309 22 2.17062 17.52 2.17062 12C2.17062 6.48 6.69309 2 12.2654 2" stroke="#292D32" stroke-width="1.5" stroke-linecap="round" stroke-linejoin="round"/>
<path d="M17.3128 3V7H21.3507" stroke="#292D32" stroke-width="1.5" stroke-linecap="round" stroke-linejoin="round"/>
<path d="M22.3602 2L17.3128 7" stroke="#292D32" stroke-width="1.5" stroke-linecap="round" stroke-linejoin="round"/>
</svg>
