<svg width="25" height="24" viewBox="0 0 25 24" fill="none" xmlns="http://www.w3.org/2000/svg">
<path d="M2.18958 11V9C2.18958 5.5 4.20853 4 7.23697 4H17.3318C20.3602 4 22.3791 5.5 22.3791 9V15C22.3791 18.5 20.3602 20 17.3318 20H12.2844" stroke="#292D32" stroke-width="1.5" stroke-miterlimit="10" stroke-linecap="round" stroke-linejoin="round"/>
<path d="M12.2844 14.5C13.6782 14.5 14.8081 13.3807 14.8081 12C14.8081 10.6193 13.6782 9.5 12.2844 9.5C10.8906 9.5 9.76068 10.6193 9.76068 12C9.76068 13.3807 10.8906 14.5 12.2844 14.5Z" stroke="#292D32" stroke-width="1.5" stroke-miterlimit="10" stroke-linecap="round" stroke-linejoin="round"/>
<path d="M18.846 9.5V14.5" stroke="#292D32" stroke-width="1.5" stroke-miterlimit="10" stroke-linecap="round" stroke-linejoin="round"/>
<path d="M2.18958 15.5H7.58022C8.22628 15.5 8.75119 16.02 8.75119 16.66V17.94" stroke="#292D32" stroke-width="1.5" stroke-miterlimit="10" stroke-linecap="round" stroke-linejoin="round"/>
<path d="M3.42111 14.28L2.18958 15.5L3.42111 16.72" stroke="#292D32" stroke-width="1.5" stroke-miterlimit="10" stroke-linecap="round" stroke-linejoin="round"/>
<path d="M8.75119 20.7801H3.36054C2.71448 20.7801 2.18958 20.2601 2.18958 19.6201V18.3401" stroke="#292D32" stroke-width="1.5" stroke-miterlimit="10" stroke-linecap="round" stroke-linejoin="round"/>
<path d="M7.52087 22.0003L8.75241 20.7803L7.52087 19.5603" stroke="#292D32" stroke-width="1.5" stroke-miterlimit="10" stroke-linecap="round" stroke-linejoin="round"/>
</svg>
